<svg width="24" height="24" viewBox="0 0 24 24" fill="none" xmlns="http://www.w3.org/2000/svg">
<path d="M17.0006 11H13.0004V7C13.0004 6.73478 12.895 6.48043 12.7075 6.29289C12.5199 6.10536 12.2656 6 12.0003 6C11.7351 6 11.4807 6.10536 11.2932 6.29289C11.1056 6.48043 11.0003 6.73478 11.0003 7V11H7.00005C6.73482 11 6.48046 11.1054 6.29291 11.2929C6.10536 11.4804 6 11.7348 6 12C6 12.2652 6.10536 12.5196 6.29291 12.7071C6.48046 12.8946 6.73482 13 7.00005 13H11.0003V17C11.0003 17.2652 11.1056 17.5196 11.2932 17.7071C11.4807 17.8946 11.7351 18 12.0003 18C12.2656 18 12.5199 17.8946 12.7075 17.7071C12.895 17.5196 13.0004 17.2652 13.0004 17V13H17.0006C17.2658 13 17.5202 12.8946 17.7077 12.7071C17.8953 12.5196 18.0006 12.2652 18.0006 12C18.0006 11.7348 17.8953 11.4804 17.7077 11.2929C17.5202 11.1054 17.2658 11 17.0006 11Z" fill="#191C1F"/>
<path d="M23.0013 12C23.0013 18.0751 18.0762 23 12.0006 23C5.92511 23 1 18.0751 1 12C1 5.92492 5.92511 1 12.0006 1C18.0762 1 23.0013 5.92492 23.0013 12Z" stroke-width="2"/>
</svg>
